<svg width="129" height="32" viewBox="0 0 129 32" fill="none" xmlns="http://www.w3.org/2000/svg">
<path d="M6.854 9.53V14.926H15.556V19.942H6.854V25.794H16.696V31H0.356V4.324H16.696V9.53H6.854ZM41.8526 9.796V31H35.3546V28.112C34.6959 29.0493 33.7966 29.8093 32.6566 30.392C31.5419 30.9493 30.3006 31.228 28.9326 31.228C27.3113 31.228 25.8799 30.8733 24.6386 30.164C23.3973 29.4293 22.4346 28.378 21.7506 27.01C21.0666 25.642 20.7246 24.0333 20.7246 22.184V9.796H27.1846V21.31C27.1846 22.7287 27.5519 23.8307 28.2866 24.616C29.0213 25.4013 30.0093 25.794 31.2506 25.794C32.5173 25.794 33.5179 25.4013 34.2526 24.616C34.9873 23.8307 35.3546 22.7287 35.3546 21.31V9.796H41.8526ZM59.4401 9.568C61.9227 9.568 63.8987 10.3787 65.3681 12C66.8627 13.596 67.6101 15.8 67.6101 18.612V31H61.1501V19.486C61.1501 18.0673 60.7827 16.9653 60.0481 16.18C59.3134 15.3947 58.3254 15.002 57.0841 15.002C55.8427 15.002 54.8547 15.3947 54.1201 16.18C53.3854 16.9653 53.0181 18.0673 53.0181 19.486V31H46.5201V9.796H53.0181V12.608C53.6767 11.6707 54.5634 10.936 55.6781 10.404C56.7927 9.84667 58.0467 9.568 59.4401 9.568ZM81.7775 31.304C79.7002 31.304 77.8255 30.8607 76.1535 29.974C74.5069 29.0873 73.2022 27.8207 72.2395 26.174C71.3022 24.5273 70.8335 22.602 70.8335 20.398C70.8335 18.2193 71.3149 16.3067 72.2775 14.66C73.2402 12.988 74.5575 11.7087 76.2295 10.822C77.9015 9.93533 79.7762 9.492 81.8535 9.492C83.9309 9.492 85.8055 9.93533 87.4775 10.822C89.1495 11.7087 90.4669 12.988 91.4295 14.66C92.3922 16.3067 92.8735 18.2193 92.8735 20.398C92.8735 22.5767 92.3795 24.502 91.3915 26.174C90.4289 27.8207 89.0989 29.0873 87.4015 29.974C85.7295 30.8607 83.8549 31.304 81.7775 31.304ZM81.7775 25.68C83.0189 25.68 84.0702 25.224 84.9315 24.312C85.8182 23.4 86.2615 22.0953 86.2615 20.398C86.2615 18.7007 85.8309 17.396 84.9695 16.484C84.1335 15.572 83.0949 15.116 81.8535 15.116C80.5869 15.116 79.5355 15.572 78.6995 16.484C77.8635 17.3707 77.4455 18.6753 77.4455 20.398C77.4455 22.0953 77.8509 23.4 78.6615 24.312C79.4975 25.224 80.5362 25.68 81.7775 25.68Z" fill="white"/>
<path d="M99.5888 7.592C98.4488 7.592 97.5115 7.26266 96.7768 6.604C96.0675 5.92 95.7128 5.084 95.7128 4.096C95.7128 3.08267 96.0675 2.24667 96.7768 1.588C97.5115 0.903998 98.4488 0.561998 99.5888 0.561998C100.704 0.561998 101.616 0.903998 102.325 1.588C103.06 2.24667 103.427 3.08267 103.427 4.096C103.427 5.084 103.06 5.92 102.325 6.604C101.616 7.26266 100.704 7.592 99.5888 7.592ZM102.819 9.796V31H96.3208V9.796H102.819ZM106.236 20.36C106.236 18.1813 106.641 16.2687 107.452 14.622C108.288 12.9753 109.415 11.7087 110.834 10.822C112.253 9.93533 113.836 9.492 115.584 9.492C117.079 9.492 118.383 9.796 119.498 10.404C120.638 11.012 121.512 11.81 122.12 12.798V9.796H128.618V31H122.12V27.998C121.487 28.986 120.6 29.784 119.46 30.392C118.345 31 117.041 31.304 115.546 31.304C113.823 31.304 112.253 30.8607 110.834 29.974C109.415 29.062 108.288 27.7827 107.452 26.136C106.641 24.464 106.236 22.5387 106.236 20.36ZM122.12 20.398C122.12 18.7767 121.664 17.4973 120.752 16.56C119.865 15.6227 118.776 15.154 117.484 15.154C116.192 15.154 115.09 15.6227 114.178 16.56C113.291 17.472 112.848 18.7387 112.848 20.36C112.848 21.9813 113.291 23.2733 114.178 24.236C115.09 25.1733 116.192 25.642 117.484 25.642C118.776 25.642 119.865 25.1733 120.752 24.236C121.664 23.2987 122.12 22.0193 122.12 20.398Z" fill="url(#paint0_linear_23_105)"/>
<defs>
<linearGradient id="paint0_linear_23_105" x1="111.05" y1="-11" x2="88.9013" y2="65.5633" gradientUnits="userSpaceOnUse">
<stop stop-color="#B75CFF"/>
<stop offset="1" stop-color="#671AE4"/>
</linearGradient>
</defs>
</svg>
