<svg width="26" height="26" viewBox="0 0 26 26" fill="none" xmlns="http://www.w3.org/2000/svg">
<path d="M12.9 25.8C20.0245 25.8 25.8 20.0245 25.8 12.9C25.8 5.77552 20.0245 0 12.9 0C5.77552 0 0 5.77552 0 12.9C0 20.0245 5.77552 25.8 12.9 25.8Z" fill="url(#paint0_linear_21_373)"/>
<path d="M22.1442 13.0648H19.8669C19.8669 8.40525 16.1063 4.62964 11.4617 4.62964C6.86203 4.62964 3.11639 8.30037 3.02649 12.9C2.93659 17.6045 7.37144 21.6948 12.0909 21.6948H12.6902C16.8554 21.6948 22.4439 18.4436 23.3129 14.4882C23.4477 13.8439 23.0282 13.2296 22.384 13.0948C22.3091 13.0648 22.2341 13.0648 22.1442 13.0648ZM8.06063 13.2746C8.06063 13.9039 7.55123 14.3983 6.92196 14.3983C6.29269 14.3983 5.79827 13.8889 5.79827 13.2746V11.4467C5.79827 10.8174 6.30767 10.323 6.93694 10.323C7.56621 10.323 8.06063 10.8324 8.06063 11.4467V13.2746ZM11.9861 13.2746C11.9861 13.9039 11.4767 14.3983 10.8474 14.3983C10.2181 14.3983 9.7237 13.8889 9.7237 13.2746V11.4467C9.7237 10.8174 10.2331 10.323 10.8624 10.323C11.4916 10.323 11.9861 10.8324 11.9861 11.4467V13.2746Z" fill="url(#paint1_linear_21_373)"/>
<defs>
<linearGradient id="paint0_linear_21_373" x1="12.906" y1="0" x2="12.906" y2="25.812" gradientUnits="userSpaceOnUse">
<stop stop-color="#534BB1"/>
<stop offset="1" stop-color="#551BF9"/>
</linearGradient>
<linearGradient id="paint1_linear_21_373" x1="13.1807" y1="4.66859" x2="13.1807" y2="21.6933" gradientUnits="userSpaceOnUse">
<stop stop-color="white"/>
<stop offset="1" stop-color="white" stop-opacity="0.82"/>
</linearGradient>
</defs>
</svg>
